<svg width="100%" height="90%" viewBox="0 0 528 606" fill="none" xmlns="http://www.w3.org/2000/svg">
<circle cx="264" cy="264" r="263.248" stroke="#CE785E" stroke-width="1.50389"/>
<path d="M465.648 265.148L281.035 113.089L102.428 234.884L75.6232 271.219L61.6885 317.621L323.106 345.25L331.271 339.771L465.648 265.148Z" fill="#8EA286"/>
<g filter="url(#filter0_d_160_26899)">
<rect x="216.241" y="476.847" width="94.8543" height="94.347" rx="47.1735" fill="white"/>
</g>
<path d="M260.249 526.343L263.691 523.407L267.139 526.337L263.667 498.203L260.249 526.343Z" stroke="black" stroke-width="1.21773"/>
<path d="M267.14 527.485L263.698 530.422L260.25 527.492L263.722 555.625L267.14 527.485Z" stroke="black" stroke-width="1.21773"/>
<path d="M260.28 525.78L261.376 524.6L262.553 523.502L244.716 507.973L260.28 525.78Z" fill="black" stroke="black" stroke-width="1.21773"/>
<path d="M266.729 527.67L266.013 529.228L264.456 529.947L282.673 545.856L266.729 527.67Z" fill="black" stroke="black" stroke-width="1.21773"/>
<path d="M264.829 523.5L266.008 524.596L267.106 525.773L282.636 507.936L264.829 523.5Z" fill="black" stroke="black" stroke-width="1.21773"/>
<path d="M262.939 529.948L261.381 529.233L260.662 527.676L244.753 545.892L262.939 529.948Z" fill="black" stroke="black" stroke-width="1.21773"/>
<path d="M260.249 526.343L263.691 523.407L263.667 498.203L260.249 526.343Z" fill="black" stroke="black" stroke-width="1.21773"/>
<path d="M267.14 527.485L263.698 530.422L263.722 555.625L267.14 527.485Z" fill="black" stroke="black" stroke-width="1.21773"/>
<path d="M263.124 530.36L260.188 526.917L263.117 523.469L234.984 526.942L263.124 530.36Z" stroke="black" stroke-width="1.21773"/>
<path d="M264.266 523.468L267.202 526.911L264.272 530.359L292.405 526.886L264.266 523.468Z" stroke="black" stroke-width="1.21773"/>
<path d="M263.124 530.36L260.188 526.917L234.984 526.942L263.124 530.36Z" fill="black" stroke="black" stroke-width="1.21773"/>
<path d="M264.266 523.468L267.202 526.911L292.405 526.886L264.266 523.468Z" fill="black" stroke="black" stroke-width="1.21773"/>
<defs>
<filter id="filter0_d_160_26899" x="182.382" y="442.988" width="162.572" height="162.065" filterUnits="userSpaceOnUse" color-interpolation-filters="sRGB">
<feFlood flood-opacity="0" result="BackgroundImageFix"/>
<feColorMatrix in="SourceAlpha" type="matrix" values="0 0 0 0 0 0 0 0 0 0 0 0 0 0 0 0 0 0 127 0" result="hardAlpha"/>
<feOffset/>
<feGaussianBlur stdDeviation="16.9295"/>
<feComposite in2="hardAlpha" operator="out"/>
<feColorMatrix type="matrix" values="0 0 0 0 0 0 0 0 0 0 0 0 0 0 0 0 0 0 0.12 0"/>
<feBlend mode="normal" in2="BackgroundImageFix" result="effect1_dropShadow_160_26899"/>
<feBlend mode="normal" in="SourceGraphic" in2="effect1_dropShadow_160_26899" result="shape"/>
</filter>
</defs>
</svg>
